<?xml version="1.0" standalone="no"?>
<!DOCTYPE svg PUBLIC "-//W3C//DTD SVG 20010904//EN"
 "http://www.w3.org/TR/2001/REC-SVG-20010904/DTD/svg10.dtd">
<svg version="1.0" xmlns="http://www.w3.org/2000/svg"
 width="1201.000000pt" height="1201.000000pt" viewBox="0 0 1201.000000 1201.000000"
 preserveAspectRatio="xMidYMid meet">
<metadata>
Created by potrace 1.16, written by Peter Selinger 2001-2019
</metadata>
<g transform="translate(0.000000,1201.000000) scale(0.100000,-0.100000)"
fill="#000000" stroke="none">
<path d="M0 6005 l0 -6005 6005 0 6005 0 0 6005 0 6005 -6005 0 -6005 0 0
-6005z m6515 2596 c19 -62 35 -121 35 -131 0 -28 -25 -43 -60 -35 -46 10 -64
44 -57 113 4 52 36 176 43 169 2 -2 19 -54 39 -116z m-1988 -327 c38 -99 39
-110 15 -123 -42 -22 -102 16 -102 65 0 31 40 157 48 150 3 -4 21 -45 39 -92z
m1353 -95 c0 -34 -30 -43 -77 -24 -30 13 -33 17 -33 59 0 25 10 71 21 102 l22
57 33 -83 c19 -46 34 -96 34 -111z m1297 95 c38 -99 39 -110 15 -123 -42 -22
-102 16 -102 65 0 31 40 157 48 150 3 -4 21 -45 39 -92z m1324 4 c35 -81 38
-123 8 -131 -12 -3 -31 -2 -43 3 -39 15 -49 36 -43 93 6 59 37 140 45 117 2
-8 17 -45 33 -82z m-3313 -3 c37 -99 39 -121 13 -128 -57 -15 -109 29 -97 80
17 73 37 133 44 133 4 0 22 -38 40 -85z m1392 -555 l0 -640 -100 0 -100 0 0
640 0 640 100 0 100 0 0 -640z m1259 557 c37 -92 39 -123 11 -130 -34 -9 -74
8 -88 36 -10 20 -10 36 -1 74 12 48 38 108 44 101 2 -1 17 -38 34 -81z m-3239
-697 l0 -500 -100 0 -100 0 0 500 0 500 100 0 100 0 0 -500z m660 0 l0 -500
-100 0 -100 0 0 500 0 500 100 0 100 0 0 -500z m660 0 l0 -500 -100 0 -100 0
0 500 0 500 100 0 100 0 0 -500z m1330 0 l0 -500 -100 0 -100 0 0 500 0 500
100 0 100 0 0 -500z m660 0 l0 -500 -100 0 -100 0 0 500 0 500 100 0 100 0 0
-500z m660 0 l0 -500 -95 0 -95 0 0 500 0 500 95 0 95 0 0 -500z m-3870 -560
c0 -10 -16 -36 -36 -56 l-37 -36 7 -112 c15 -245 57 -422 153 -642 55 -125
142 -278 212 -371 71 -96 289 -310 391 -384 189 -138 410 -243 650 -308 70
-19 252 -51 293 -51 16 0 17 14 15 198 l-3 197 -60 13 c-336 73 -465 127 -665
278 -351 265 -558 648 -587 1091 -6 95 -7 99 -40 127 -19 18 -33 39 -33 53 l0
23 200 0 200 0 0 -23 c0 -13 -13 -34 -31 -50 l-32 -28 6 -117 c20 -397 280
-786 651 -974 96 -48 260 -103 339 -112 l57 -7 0 199 0 200 -71 16 c-144 32
-321 154 -425 290 -93 122 -131 222 -154 402 -6 45 -17 86 -29 102 -10 15 -26
44 -34 65 l-16 37 205 0 205 0 -6 -22 c-4 -13 -20 -36 -36 -51 -25 -24 -29
-35 -28 -80 1 -132 62 -260 168 -359 63 -57 204 -138 218 -124 4 4 7 124 7
266 l1 260 -32 31 c-18 16 -33 34 -33 39 0 4 -3 15 -6 24 -5 14 16 16 200 16
202 0 206 0 206 -21 0 -11 -16 -35 -35 -52 l-35 -31 0 -267 0 -268 28 8 c190
55 362 278 362 472 0 52 -3 62 -29 85 -16 14 -31 36 -34 50 l-4 24 204 0 203
0 -15 -36 c-8 -19 -23 -47 -34 -62 -10 -15 -22 -54 -26 -87 -28 -239 -99 -385
-259 -532 -87 -80 -173 -128 -293 -166 l-103 -32 0 -199 0 -199 58 6 c120 13
335 101 473 194 280 189 471 497 515 827 21 163 20 173 -21 210 -19 18 -35 42
-35 54 0 22 1 22 204 22 l203 0 -5 -25 c-2 -14 -15 -34 -28 -44 -32 -25 -44
-61 -44 -129 0 -71 -24 -225 -50 -318 -126 -452 -492 -841 -930 -987 -58 -20
-158 -45 -222 -57 l-118 -22 0 -200 0 -201 73 7 c246 22 644 175 862 331 280
201 519 505 646 822 71 177 121 404 135 612 l7 103 -37 34 c-20 18 -36 42 -36
53 0 21 5 21 206 21 l206 0 -6 -27 c-4 -14 -20 -38 -36 -53 -25 -24 -28 -34
-34 -116 -24 -349 -89 -600 -222 -866 -326 -648 -908 -1068 -1612 -1163 -68
-9 -130 -19 -138 -22 -12 -4 -14 -73 -12 -466 l3 -460 61 -17 c140 -38 189
-113 110 -166 -32 -20 -34 -61 -6 -119 39 -81 104 -119 335 -195 88 -29 194
-70 237 -92 95 -49 177 -132 219 -222 31 -67 69 -223 69 -288 l0 -38 -1165 0
-1166 0 5 33 c3 17 8 60 11 95 8 86 46 194 91 259 80 117 176 173 444 263 175
59 215 77 264 121 32 28 61 86 68 135 2 13 -11 37 -34 63 -21 22 -38 46 -38
51 0 24 52 60 133 91 l87 32 0 462 0 462 -92 6 c-230 16 -589 134 -823 270
-145 84 -350 241 -457 350 -351 356 -574 856 -603 1352 -9 144 -13 162 -44
192 -16 16 -32 38 -36 51 l-6 22 205 0 c198 0 206 -1 206 -20z"/>
</g>
</svg>
